<svg width="507" height="54" viewBox="0 0 507 54" fill="none" xmlns="http://www.w3.org/2000/svg">
<path d="M43.1153 1.864C43.1153 2.312 42.7793 2.788 42.1073 3.292C41.4633 3.768 40.8893 4.062 40.3853 4.174C38.5653 4.51 36.4093 4.72 33.9173 4.804C33.6933 4.804 33.2173 4.846 32.4893 4.93C31.7613 4.986 31.3413 5.014 31.2293 5.014H26.9453C27.1413 5.014 26.3433 5.224 24.5513 5.644C24.2993 5.7 24.0333 5.868 23.7533 6.148C23.4733 6.428 23.3333 7.436 23.3333 9.172V32.65C23.3333 32.986 23.6693 33.266 24.3413 33.49C24.7893 33.63 25.2373 33.756 25.6853 33.868C26.0773 34.064 26.2733 34.344 26.2733 34.708C26.2733 34.988 25.6993 35.59 24.5513 36.514C23.5153 37.354 22.3253 38.124 20.9813 38.824C19.4693 39.608 18.2793 40 17.4113 40C17.1593 40 16.8933 39.902 16.6133 39.706C16.3613 39.51 16.2213 39.356 16.1933 39.244C16.0253 38.068 15.7873 36.29 15.4793 33.91C15.2833 31.502 15.1853 28.632 15.1853 25.3V11.146C15.1853 11.034 15.2413 10.67 15.3533 10.054C15.4933 9.41 15.5633 8.878 15.5633 8.458C15.5633 8.066 15.5073 7.702 15.3953 7.366C15.1713 6.526 14.6113 6.008 13.7153 5.812C13.4633 5.756 12.7073 5.728 11.4473 5.728C9.87925 5.728 7.35925 5.98 3.88725 6.484C3.80325 6.512 3.56525 6.582 3.17325 6.694C2.78125 6.806 2.43125 6.862 2.12325 6.862C1.28325 6.862 0.86325 6.652 0.86325 6.232C0.86325 5.812 1.47925 5.252 2.71125 4.552C3.55125 4.076 4.26525 3.74 4.85325 3.544C7.31725 2.676 9.27725 2.116 10.7333 1.864C12.1613 1.696 14.2753 1.444 17.0753 1.108L37.8653 1.234C39.6013 1.038 40.8333 0.939997 41.5613 0.939997C42.5973 0.939997 43.1153 1.248 43.1153 1.864ZM69.483 27.106C69.483 29.43 69.133 31.152 68.433 32.272C65.157 37.788 60.187 40.546 53.523 40.546C47.139 40.546 42.855 37.9 40.671 32.608C40.419 32.104 40.111 31.348 39.747 30.34C39.523 29.36 39.411 28.38 39.411 27.4C39.411 25.944 39.649 24.418 40.125 22.822C40.629 21.226 41.273 19.91 42.057 18.874C43.597 16.802 45.641 15.318 48.189 14.422C49.029 14.114 50.205 13.82 51.717 13.54C53.397 13.232 54.755 13.078 55.791 13.078C59.599 13.078 62.833 14.506 65.493 17.362C68.153 20.19 69.483 23.438 69.483 27.106ZM64.107 29.332C64.107 27.988 64.093 27.26 64.065 27.148C63.309 24.46 62.511 22.374 61.671 20.89C60.383 18.622 58.647 16.984 56.463 15.976C55.399 15.472 54.391 15.22 53.439 15.22C51.675 15.22 50.065 15.752 48.609 16.816C46.929 18.048 45.781 19.77 45.165 21.982C45.025 22.262 44.871 22.626 44.703 23.074C44.703 23.438 44.675 23.942 44.619 24.586C44.507 25.51 44.451 25.874 44.451 25.678C44.451 26.546 44.563 27.372 44.787 28.156C44.899 28.38 45.025 28.674 45.165 29.038C45.809 31.81 47.209 34.106 49.365 35.926C51.381 37.634 53.495 38.488 55.707 38.488C58.843 38.488 61.349 36.85 63.225 33.574C63.701 32.762 63.981 32.076 64.065 31.516C64.093 31.32 64.107 30.592 64.107 29.332ZM103.669 37.774C103.669 38.334 102.493 38.894 100.141 39.454C98.2654 39.902 97.0474 40.126 96.4874 40.126H82.1234C81.4234 40.126 80.9194 39.664 80.6114 38.74C80.4154 38.152 80.3174 37.55 80.3174 36.934V23.662C80.3174 23.55 80.3454 23.34 80.4014 23.032C80.4574 22.724 80.4994 22.528 80.5274 22.444C80.5274 22.276 80.5134 22.024 80.4854 21.688C80.4574 21.352 80.4434 21.156 80.4434 21.1V17.362C80.4434 17.754 80.4714 16.802 80.5274 14.506C80.5554 12.546 80.5554 11.118 80.5274 10.222C80.4994 9.69 80.2054 9.27 79.6454 8.962C79.2534 8.738 78.4834 8.598 77.3354 8.542C76.2994 8.486 75.5014 8.248 74.9414 7.828V7.198H84.7694C85.7494 7.198 86.3234 7.842 86.4914 9.13L86.7434 36.43C86.7434 36.626 86.8554 36.85 87.0794 37.102C87.3314 37.354 87.7654 37.508 88.3814 37.564C88.8014 37.564 89.2214 37.578 89.6414 37.606C91.6574 37.83 93.7434 37.942 95.8994 37.942C97.2714 37.942 98.4054 37.886 99.3014 37.774C99.6934 37.746 100.379 37.606 101.359 37.354C102.227 37.13 102.717 37.018 102.829 37.018C102.997 37.018 103.277 37.116 103.669 37.312V37.774ZM136.44 40.168C136.44 40.784 135.39 41.092 133.29 41.092C131.834 41.092 130.784 40.868 130.14 40.42C129.132 39.692 127.872 38.53 126.36 36.934C124.4 34.694 121.628 31.53 118.044 27.442C117.988 27.358 117.806 27.316 117.498 27.316C117.246 27.316 116.602 27.512 115.566 27.904C114.39 28.38 113.802 28.8 113.802 29.164V32.902C113.802 34.442 113.788 35.324 113.76 35.548C113.676 36.836 113.396 37.928 112.92 38.824C112.724 39.16 112.22 39.468 111.408 39.748C110.82 39.916 110.246 40.084 109.686 40.252C108.482 40.644 107.502 40.84 106.746 40.84C106.242 40.84 105.99 40.644 105.99 40.252C105.99 40.224 106.522 39.608 107.586 38.404C108.09 37.816 108.342 36.808 108.342 35.38V12.91C108.342 11.37 107.404 10.446 105.528 10.138C105.472 10.11 105.388 10.04 105.276 9.928V9.55C105.808 9.326 106.41 9.214 107.082 9.214C107.726 9.214 108.384 9.284 109.056 9.424C109.616 9.424 110.176 9.438 110.736 9.466C111.604 9.494 112.192 9.662 112.5 9.97C113.116 10.53 113.48 11.426 113.592 12.658C113.592 13.638 113.606 14.618 113.634 15.598C113.634 16.074 113.634 16.858 113.634 17.95C113.606 19.21 113.592 19.756 113.592 19.588V22.276C113.592 22.808 113.62 23.62 113.676 24.712C113.648 25.076 113.634 25.454 113.634 25.846C113.69 26.35 113.844 26.658 114.096 26.77C114.264 26.826 114.88 26.658 115.944 26.266C117.568 25.706 119.444 24.362 121.572 22.234C122.02 21.786 122.762 20.806 123.798 19.294C125.058 17.53 125.688 16.382 125.688 15.85C125.688 15.766 125.59 15.584 125.394 15.304C125.226 14.996 125.142 14.8 125.142 14.716C125.142 14.632 125.156 14.562 125.184 14.506C125.24 14.45 125.268 14.408 125.268 14.38C125.828 14.156 126.402 14.044 126.99 14.044C127.718 14.044 128.614 14.142 129.678 14.338C130.882 14.562 131.596 14.814 131.82 15.094C131.876 15.598 131.358 16.578 130.266 18.034C129.93 18.51 129.286 19.168 128.334 20.008C127.55 20.708 126.766 21.408 125.982 22.108C125.31 22.556 124.652 23.004 124.008 23.452C122.86 24.264 122.286 24.782 122.286 25.006C122.286 25.258 122.93 26.056 124.218 27.4C125.926 29.108 127.004 30.242 127.452 30.802C128.068 31.418 128.908 32.286 129.972 33.406C130.756 34.302 132.016 35.646 133.752 37.438C134.284 37.942 135.082 38.684 136.146 39.664C136.342 39.86 136.44 40.028 136.44 40.168ZM153.462 39.118C153.462 39.566 153.042 39.846 152.202 39.958C151.586 40.042 150.662 40.126 149.43 40.21C149.346 40.21 148.912 40.252 148.128 40.336C147.344 40.42 146.924 40.462 146.868 40.462C145.944 40.462 145.412 40.224 145.272 39.748C145.076 39.076 144.978 38.6 144.978 38.32V33.07C144.978 33.014 144.992 32.79 145.02 32.398C145.076 32.006 145.104 31.796 145.104 31.768V30.088C145.104 30.116 145.09 29.864 145.062 29.332C145.034 28.828 145.034 28.45 145.062 28.198C145.062 27.834 145.09 27.316 145.146 26.644C145.202 25.944 145.23 25.58 145.23 25.552V23.452L145.314 20.344C145.23 19.7 145.188 19 145.188 18.244C145.188 16.732 144.866 15.85 144.222 15.598C143.942 15.514 143.13 15.388 141.786 15.22C140.778 15.108 140.274 14.926 140.274 14.674C140.274 14.31 140.792 14.086 141.828 14.002C145.048 13.722 146.938 13.582 147.498 13.582C147.974 13.582 148.52 13.694 149.136 13.918C149.892 14.17 150.27 14.492 150.27 14.884V22.696C150.27 22.668 150.27 23.102 150.27 23.998C150.242 24.894 150.228 25.538 150.228 25.93C150.228 26.098 150.214 26.364 150.186 26.728C150.158 27.064 150.144 27.232 150.144 27.232V33.616C150.144 33.644 150.186 33.812 150.27 34.12C150.382 34.428 150.438 34.61 150.438 34.666V36.388C150.438 36.668 150.508 37.074 150.648 37.606C150.844 38.25 151.054 38.586 151.278 38.614C151.726 38.642 152.384 38.698 153.252 38.782C153.392 38.81 153.462 38.922 153.462 39.118ZM180.783 17.446C180.783 17.978 180.503 18.496 179.943 19C179.383 19.504 178.879 19.756 178.431 19.756C178.067 19.756 177.773 19.518 177.549 19.042C177.297 18.426 176.989 17.992 176.625 17.74C176.177 17.432 175.435 17.138 174.399 16.858C173.391 16.578 172.523 16.438 171.795 16.438C170.311 16.438 168.855 16.9 167.427 17.824C165.831 18.86 164.599 20.246 163.731 21.982C163.283 22.878 163.059 23.424 163.059 23.62C163.003 24.46 163.381 24.88 164.193 24.88H168.687C168.743 24.88 169.051 24.922 169.611 25.006C170.171 25.062 170.493 25.09 170.577 25.09H177.045C178.641 25.09 179.439 25.468 179.439 26.224C179.439 26.616 179.047 27.078 178.263 27.61C177.591 28.058 177.101 28.338 176.793 28.45C176.597 28.534 176.373 28.576 176.121 28.576C175.981 28.576 175.575 28.38 174.903 27.988C174.231 27.596 173.671 27.4 173.223 27.4L166.797 27.484C166.741 27.512 165.985 27.568 164.529 27.652C163.437 27.708 162.877 27.89 162.849 28.198C162.793 28.702 162.765 29.038 162.765 29.206C162.849 29.654 162.947 30.298 163.059 31.138C163.283 33.042 164.403 34.666 166.419 36.01C168.211 37.186 169.947 37.774 171.627 37.774C172.159 37.774 173.643 37.466 176.079 36.85C176.275 36.794 176.821 36.57 177.717 36.178C178.473 35.87 179.019 35.716 179.355 35.716C179.719 35.716 179.901 35.912 179.901 36.304C179.901 36.64 179.593 37.074 178.977 37.606C178.445 38.026 177.969 38.334 177.549 38.53C176.569 38.978 175.029 39.566 172.929 40.294C172.145 40.49 171.361 40.588 170.577 40.588C169.121 40.588 167.819 40.448 166.671 40.168C166.447 40.14 165.397 39.678 163.521 38.782C161.253 37.746 159.545 36.066 158.397 33.742C157.473 31.866 157.011 29.822 157.011 27.61C157.011 26.378 157.277 24.978 157.809 23.41C158.537 21.17 159.741 19.308 161.421 17.824C162.569 16.844 163.773 16.06 165.033 15.472C165.341 15.332 166.307 15.024 167.931 14.548C169.415 14.128 170.927 13.918 172.467 13.918C174.175 13.918 175.841 14.156 177.465 14.632C179.677 15.276 180.783 16.214 180.783 17.446ZM163.983 9.172C163.983 8.556 164.235 8.038 164.739 7.618C165.271 7.198 165.901 6.988 166.629 6.988C167.385 6.988 168.015 7.198 168.519 7.618C169.051 8.038 169.317 8.556 169.317 9.172C169.317 9.76 169.051 10.278 168.519 10.726C168.015 11.146 167.385 11.356 166.629 11.356C165.901 11.356 165.271 11.146 164.739 10.726C164.235 10.278 163.983 9.76 163.983 9.172ZM173.433 9.172C173.433 8.556 173.699 8.038 174.231 7.618C174.763 7.198 175.393 6.988 176.121 6.988C176.849 6.988 177.479 7.198 178.011 7.618C178.543 8.038 178.809 8.556 178.809 9.172C178.809 9.76 178.543 10.278 178.011 10.726C177.479 11.146 176.849 11.356 176.121 11.356C175.393 11.356 174.763 11.146 174.231 10.726C173.699 10.278 173.433 9.76 173.433 9.172ZM221.414 39.16C221.414 39.468 221.106 39.72 220.49 39.916C220.014 40.056 219.566 40.126 219.146 40.126H217.34C216.836 40.126 216.318 40.014 215.786 39.79C215.142 39.482 214.778 39.062 214.694 38.53C214.722 37.998 214.638 37.256 214.442 36.304C214.246 35.94 213.714 35.618 212.846 35.338C212.146 35.142 211.446 34.946 210.746 34.75C209.766 34.386 208.352 33.812 206.504 33.028C204.516 32.076 203.06 31.362 202.136 30.886C200.26 29.906 198.692 29.024 197.432 28.24C196.704 27.568 195.808 26.868 194.744 26.14C194.268 26.112 194.03 26.462 194.03 27.19V36.43C194.03 38.894 192.07 40.126 188.15 40.126C187.478 40.126 187.03 39.93 186.806 39.538V33.868L187.646 21.73C187.646 21.534 187.66 21.226 187.688 20.806C187.716 20.358 187.73 20.008 187.73 19.756C187.73 17.544 186.96 16.228 185.42 15.808V15.178C188.22 14.226 189.998 13.75 190.754 13.75C191.538 13.75 192.154 14.03 192.602 14.59C193.806 16.27 195.836 19.056 198.692 22.948C200.064 24.74 202.584 26.854 206.252 29.29C209.808 31.642 212.202 32.86 213.434 32.944C214.134 33 214.484 32.384 214.484 31.096C214.484 27.82 214.05 22.766 213.182 15.934C213.126 15.626 212.72 14.954 211.964 13.918C212.356 13.61 212.916 13.456 213.644 13.456C214.652 13.456 215.618 13.596 216.542 13.876C217.382 14.128 217.858 14.38 217.97 14.632C219.174 17.544 219.874 21.786 220.07 27.358C220.042 29.094 220.084 31.684 220.196 35.128C220.28 36.528 220.504 37.536 220.868 38.152C221.232 38.74 221.414 39.076 221.414 39.16ZM284.461 6.19C284.461 6.974 284.027 7.744 283.159 8.5C282.319 9.256 281.549 9.634 280.849 9.634C280.317 9.634 279.897 9.284 279.589 8.584C279.197 7.632 278.735 6.974 278.203 6.61C277.531 6.134 276.425 5.686 274.885 5.266C273.373 4.846 272.057 4.636 270.937 4.636C268.725 4.636 266.527 5.336 264.343 6.736C261.991 8.276 260.157 10.362 258.841 12.994C258.169 14.31 257.833 15.122 257.833 15.43C257.777 16.354 257.973 16.942 258.421 17.194C258.589 17.278 258.953 17.32 259.513 17.32H266.233C266.345 17.32 266.821 17.376 267.661 17.488C268.529 17.572 269.019 17.614 269.131 17.614H278.833C279.589 17.614 280.303 17.726 280.975 17.95C281.927 18.286 282.403 18.762 282.403 19.378C282.403 19.966 281.815 20.652 280.639 21.436C279.631 22.108 278.903 22.528 278.455 22.696C278.175 22.808 277.825 22.864 277.405 22.864C277.209 22.864 276.607 22.584 275.599 22.024C274.591 21.436 273.751 21.142 273.079 21.142L263.419 21.268C263.363 21.268 262.229 21.338 260.017 21.478C258.393 21.562 257.567 21.828 257.539 22.276C257.455 23.032 257.413 23.55 257.413 23.83C257.525 24.502 257.665 25.454 257.833 26.686C258.169 29.542 259.863 31.978 262.915 33.994C265.547 35.786 268.123 36.682 270.643 36.682C271.539 36.682 272.673 36.514 274.045 36.178C275.137 35.87 276.229 35.576 277.321 35.296C277.657 35.212 278.497 34.876 279.841 34.288C280.961 33.812 281.773 33.574 282.277 33.574C282.809 33.574 283.075 33.868 283.075 34.456C283.075 34.96 282.613 35.604 281.689 36.388C280.933 37.032 280.219 37.494 279.547 37.774C277.671 38.614 276.509 39.118 276.061 39.286C274.885 39.762 273.723 40.14 272.575 40.42C271.427 40.7 270.265 40.84 269.089 40.84C266.905 40.84 264.973 40.658 263.293 40.294C262.929 40.21 261.347 39.51 258.547 38.194C255.131 36.598 252.569 34.078 250.861 30.634C249.461 27.806 248.761 24.726 248.761 21.394C248.761 20.246 248.803 19.448 248.887 19C248.999 18.132 249.349 16.83 249.937 15.094C251.029 11.762 252.849 8.976 255.397 6.736C257.077 5.252 258.883 4.076 260.815 3.208C261.263 2.984 262.705 2.522 265.141 1.822C267.381 1.178 269.649 0.855998 271.945 0.855998C274.073 0.855998 276.327 1.15 278.707 1.738C282.543 2.69 284.461 4.174 284.461 6.19ZM314.204 39.328C313.98 39.44 313.658 39.608 313.238 39.832C312.594 40.168 311.516 40.336 310.004 40.336C309.36 40.364 308.646 40.35 307.862 40.294C306.91 40.294 306.126 39.93 305.51 39.202C304.726 38.306 304.236 37.718 304.04 37.438C303.508 36.738 303.088 36.094 302.78 35.506C302.164 34.526 301.198 32.972 299.882 30.844C297.614 33.7 296.214 35.702 295.682 36.85C295.626 37.466 295.416 38.278 295.052 39.286C294.912 39.482 294.31 39.678 293.246 39.874C291.902 40.126 291.174 40.252 291.062 40.252C289.942 40.252 289.382 39.944 289.382 39.328C289.382 38.992 290.516 37.662 292.784 35.338C293.092 34.946 293.582 34.344 294.254 33.532C295.206 32.552 296.732 31.026 298.832 28.954C297.32 26.238 296.312 24.474 295.808 23.662C294.632 21.674 293.512 19.98 292.448 18.58C292.084 18.076 291.706 17.754 291.314 17.614C290.81 17.586 290.166 17.558 289.382 17.53C288.486 17.474 288.038 17.278 288.038 16.942C288.038 16.494 289.172 15.934 291.44 15.262C293.428 14.674 294.618 14.38 295.01 14.38C296.13 14.38 297.46 15.43 299 17.53C300.036 18.958 301.408 21.212 303.116 24.292C305.468 21.408 306.91 19.364 307.442 18.16C307.498 17.572 307.708 16.774 308.072 15.766C308.212 15.57 308.814 15.374 309.878 15.178C311.222 14.926 311.95 14.8 312.062 14.8C313.182 14.8 313.742 15.094 313.742 15.682C313.742 16.046 312.608 17.376 310.34 19.672C310.032 20.092 309.542 20.694 308.87 21.478C307.918 22.486 306.35 24.068 304.166 26.224L304.418 26.644C304.978 27.68 305.426 28.464 305.762 28.996C306.294 29.808 306.63 30.368 306.77 30.676C306.994 31.124 307.302 31.628 307.694 32.188C307.806 32.3 308.002 32.65 308.282 33.238C308.45 33.63 308.576 33.896 308.66 34.036C309.22 34.876 309.752 35.576 310.256 36.136C310.564 36.5 310.788 36.78 310.928 36.976C311.432 37.732 312.104 38.096 312.944 38.068C313.42 38.04 313.7 38.04 313.784 38.068C314.036 38.096 314.246 38.208 314.414 38.404C314.694 38.712 314.624 39.02 314.204 39.328ZM352.202 23.62C352.202 23.312 352.104 23.858 351.908 25.258C351.404 28.534 349.15 31.726 345.146 34.834C341.338 37.774 337.936 39.244 334.94 39.244C334.324 39.244 333.624 39.062 332.84 38.698C331.888 38.278 331.412 37.774 331.412 37.186C331.412 36.598 331.86 36.052 332.756 35.548C333.484 35.1 334.002 34.876 334.31 34.876C334.422 34.876 334.94 35.044 335.864 35.38C336.788 35.716 337.306 35.884 337.418 35.884C337.726 35.884 338.216 35.73 338.888 35.422C339.588 35.114 340.12 34.792 340.484 34.456C342.304 32.888 343.774 31.054 344.894 28.954C346.042 26.826 346.616 24.922 346.616 23.242C346.616 22.01 346.266 20.862 345.566 19.798C344.754 18.594 343.662 17.796 342.29 17.404C340.918 17.012 340.106 16.816 339.854 16.816C338.538 16.816 336.41 17.684 333.47 19.42C330.53 21.156 328.976 22.458 328.808 23.326C328.724 23.914 328.682 24.698 328.682 25.678C328.682 25.79 328.724 26.294 328.808 27.19C328.892 28.058 328.934 28.534 328.934 28.618V38.992C328.934 39.076 328.934 39.244 328.934 39.496C328.962 39.72 328.976 39.888 328.976 40V49.114C328.976 50.374 328.066 51.522 326.246 52.558C324.762 53.398 323.586 53.818 322.718 53.818C321.934 53.818 321.542 53.594 321.542 53.146C321.542 53.034 321.682 52.824 321.962 52.516C322.382 52.068 322.634 51.788 322.718 51.676C322.886 51.424 322.97 51.074 322.97 50.626C323.026 36.262 322.956 27.764 322.76 25.132C322.704 24.488 322.676 23.354 322.676 21.73L322.634 18.454C322.634 18.09 322.214 17.782 321.374 17.53L318.518 18.034C316.81 17.754 315.956 17.334 315.956 16.774C315.956 16.354 316.278 16.06 316.922 15.892C317.314 15.836 317.72 15.766 318.14 15.682C318.896 15.486 320.002 15.206 321.458 14.842C322.27 14.618 323.082 14.38 323.894 14.128C325.014 13.82 325.994 13.666 326.834 13.666C328.15 13.666 328.808 14.366 328.808 15.766C328.808 15.934 328.794 16.2 328.766 16.564C328.738 16.928 328.724 17.194 328.724 17.362C328.724 18.286 329.088 18.748 329.816 18.748C330.012 18.748 330.684 18.384 331.832 17.656C332.42 17.264 333.008 16.886 333.596 16.522C334.408 16.074 335.234 15.64 336.074 15.22C337.222 14.604 338.146 14.226 338.846 14.086C340.414 13.722 341.982 13.54 343.55 13.54C344.698 13.54 345.678 13.68 346.49 13.96C347.33 14.24 348.548 15.36 350.144 17.32C350.62 17.88 351.096 18.944 351.572 20.512C351.992 21.94 352.202 22.976 352.202 23.62ZM386.349 37.774C386.349 38.334 385.173 38.894 382.821 39.454C380.945 39.902 379.727 40.126 379.167 40.126H364.803C364.103 40.126 363.599 39.664 363.291 38.74C363.095 38.152 362.997 37.55 362.997 36.934V23.662C362.997 23.55 363.025 23.34 363.081 23.032C363.137 22.724 363.179 22.528 363.207 22.444C363.207 22.276 363.193 22.024 363.165 21.688C363.137 21.352 363.123 21.156 363.123 21.1V17.362C363.123 17.754 363.151 16.802 363.207 14.506C363.235 12.546 363.235 11.118 363.207 10.222C363.179 9.69 362.885 9.27 362.325 8.962C361.933 8.738 361.163 8.598 360.015 8.542C358.979 8.486 358.181 8.248 357.621 7.828V7.198H367.449C368.429 7.198 369.003 7.842 369.171 9.13L369.423 36.43C369.423 36.626 369.535 36.85 369.759 37.102C370.011 37.354 370.445 37.508 371.061 37.564C371.481 37.564 371.901 37.578 372.321 37.606C374.337 37.83 376.423 37.942 378.579 37.942C379.951 37.942 381.085 37.886 381.981 37.774C382.373 37.746 383.059 37.606 384.039 37.354C384.907 37.13 385.397 37.018 385.509 37.018C385.677 37.018 385.957 37.116 386.349 37.312V37.774ZM415.983 27.106C415.983 29.43 415.633 31.152 414.933 32.272C411.657 37.788 406.687 40.546 400.023 40.546C393.639 40.546 389.355 37.9 387.171 32.608C386.919 32.104 386.611 31.348 386.247 30.34C386.023 29.36 385.911 28.38 385.911 27.4C385.911 25.944 386.149 24.418 386.625 22.822C387.129 21.226 387.773 19.91 388.557 18.874C390.097 16.802 392.141 15.318 394.689 14.422C395.529 14.114 396.705 13.82 398.217 13.54C399.897 13.232 401.255 13.078 402.291 13.078C406.099 13.078 409.333 14.506 411.993 17.362C414.653 20.19 415.983 23.438 415.983 27.106ZM410.607 29.332C410.607 27.988 410.593 27.26 410.565 27.148C409.809 24.46 409.011 22.374 408.171 20.89C406.883 18.622 405.147 16.984 402.963 15.976C401.899 15.472 400.891 15.22 399.939 15.22C398.175 15.22 396.565 15.752 395.109 16.816C393.429 18.048 392.281 19.77 391.665 21.982C391.525 22.262 391.371 22.626 391.203 23.074C391.203 23.438 391.175 23.942 391.119 24.586C391.007 25.51 390.951 25.874 390.951 25.678C390.951 26.546 391.063 27.372 391.287 28.156C391.399 28.38 391.525 28.674 391.665 29.038C392.309 31.81 393.709 34.106 395.865 35.926C397.881 37.634 399.995 38.488 402.207 38.488C405.343 38.488 407.849 36.85 409.725 33.574C410.201 32.762 410.481 32.076 410.565 31.516C410.593 31.32 410.607 30.592 410.607 29.332ZM449.077 38.194C448.909 38.474 448.027 38.88 446.431 39.412C444.863 39.944 443.743 40.21 443.071 40.21C441.951 40.21 439.809 38.726 436.645 35.758C433.621 32.93 432.109 31.278 432.109 30.802C432.109 30.494 432.963 29.766 434.671 28.618C436.995 27.022 438.577 25.874 439.417 25.174C441.097 23.69 441.951 22.374 441.979 21.226C442.007 20.302 441.713 19.378 441.097 18.454C440.397 17.362 439.529 16.83 438.493 16.858C436.505 16.914 434.307 18.132 431.899 20.512C429.575 22.78 428.413 24.642 428.413 26.098V34.876C428.413 34.932 428.441 35.086 428.497 35.338C428.553 35.562 428.581 35.716 428.581 35.8V38.992C428.581 39.888 427.265 40.336 424.633 40.336C423.177 40.336 422.267 40.168 421.903 39.832C421.903 39.692 422.029 39.426 422.281 39.034C422.533 38.642 422.673 38.404 422.701 38.32C422.897 37.508 423.037 36.64 423.121 35.716C423.205 34.484 423.261 33.798 423.289 33.658L423.373 16.9C423.289 16.06 422.869 15.514 422.113 15.262C421.105 14.926 420.531 14.674 420.391 14.506C420.615 13.946 421.427 13.666 422.827 13.666C422.883 13.666 423.219 13.708 423.835 13.792C424.479 13.848 424.829 13.876 424.885 13.876C424.969 13.876 425.081 13.904 425.221 13.96C425.389 14.016 425.515 14.044 425.599 14.044C426.383 14.044 426.873 14.142 427.069 14.338C427.377 14.786 427.699 15.234 428.035 15.682C428.091 16.102 428.119 16.312 428.119 16.312C428.119 16.368 428.119 16.55 428.119 16.858C428.119 16.886 428.189 17.404 428.329 18.412C428.497 19.42 428.553 20.12 428.497 20.512C428.833 20.876 429.043 21.058 429.127 21.058C429.071 21.058 429.631 20.428 430.807 19.168C432.151 17.74 433.551 16.592 435.007 15.724C437.107 14.492 439.235 13.876 441.391 13.876C442.847 13.876 444.009 14.506 444.877 15.766C445.633 16.83 446.011 18.034 446.011 19.378C446.011 20.918 445.283 22.5 443.827 24.124C442.903 25.16 441.559 26.322 439.795 27.61C438.339 28.674 437.611 29.276 437.611 29.416C437.611 29.78 438.787 31.04 441.139 33.196C443.295 35.156 444.933 36.556 446.053 37.396C446.249 37.536 446.725 37.62 447.481 37.648C448.153 37.648 448.685 37.83 449.077 38.194ZM473.183 17.446C473.183 17.978 472.903 18.496 472.343 19C471.783 19.504 471.279 19.756 470.831 19.756C470.467 19.756 470.173 19.518 469.949 19.042C469.697 18.426 469.389 17.992 469.025 17.74C468.577 17.432 467.835 17.138 466.799 16.858C465.791 16.578 464.923 16.438 464.195 16.438C462.711 16.438 461.255 16.9 459.827 17.824C458.231 18.86 456.999 20.246 456.131 21.982C455.683 22.878 455.459 23.424 455.459 23.62C455.403 24.46 455.781 24.88 456.593 24.88H461.087C461.143 24.88 461.451 24.922 462.011 25.006C462.571 25.062 462.893 25.09 462.977 25.09H469.445C471.041 25.09 471.839 25.468 471.839 26.224C471.839 26.616 471.447 27.078 470.663 27.61C469.991 28.058 469.501 28.338 469.193 28.45C468.997 28.534 468.773 28.576 468.521 28.576C468.381 28.576 467.975 28.38 467.303 27.988C466.631 27.596 466.071 27.4 465.623 27.4L459.197 27.484C459.141 27.512 458.385 27.568 456.929 27.652C455.837 27.708 455.277 27.89 455.249 28.198C455.193 28.702 455.165 29.038 455.165 29.206C455.249 29.654 455.347 30.298 455.459 31.138C455.683 33.042 456.803 34.666 458.819 36.01C460.611 37.186 462.347 37.774 464.027 37.774C464.559 37.774 466.043 37.466 468.479 36.85C468.675 36.794 469.221 36.57 470.117 36.178C470.873 35.87 471.419 35.716 471.755 35.716C472.119 35.716 472.301 35.912 472.301 36.304C472.301 36.64 471.993 37.074 471.377 37.606C470.845 38.026 470.369 38.334 469.949 38.53C468.969 38.978 467.429 39.566 465.329 40.294C464.545 40.49 463.761 40.588 462.977 40.588C461.521 40.588 460.219 40.448 459.071 40.168C458.847 40.14 457.797 39.678 455.921 38.782C453.653 37.746 451.945 36.066 450.797 33.742C449.873 31.866 449.411 29.822 449.411 27.61C449.411 26.378 449.677 24.978 450.209 23.41C450.937 21.17 452.141 19.308 453.821 17.824C454.969 16.844 456.173 16.06 457.433 15.472C457.741 15.332 458.707 15.024 460.331 14.548C461.815 14.128 463.327 13.918 464.867 13.918C466.575 13.918 468.241 14.156 469.865 14.632C472.077 15.276 473.183 16.214 473.183 17.446ZM506.212 38.194C506.044 38.474 505.162 38.88 503.566 39.412C501.998 39.944 500.878 40.21 500.206 40.21C499.086 40.21 496.944 38.726 493.78 35.758C490.756 32.93 489.244 31.278 489.244 30.802C489.244 30.494 490.098 29.766 491.806 28.618C494.13 27.022 495.712 25.874 496.552 25.174C498.232 23.69 499.086 22.374 499.114 21.226C499.142 20.302 498.848 19.378 498.232 18.454C497.532 17.362 496.664 16.83 495.628 16.858C493.64 16.914 491.442 18.132 489.034 20.512C486.71 22.78 485.548 24.642 485.548 26.098V34.876C485.548 34.932 485.576 35.086 485.632 35.338C485.688 35.562 485.716 35.716 485.716 35.8V38.992C485.716 39.888 484.4 40.336 481.768 40.336C480.312 40.336 479.402 40.168 479.038 39.832C479.038 39.692 479.164 39.426 479.416 39.034C479.668 38.642 479.808 38.404 479.836 38.32C480.032 37.508 480.172 36.64 480.256 35.716C480.34 34.484 480.396 33.798 480.424 33.658L480.508 16.9C480.424 16.06 480.004 15.514 479.248 15.262C478.24 14.926 477.666 14.674 477.526 14.506C477.75 13.946 478.562 13.666 479.962 13.666C480.018 13.666 480.354 13.708 480.97 13.792C481.614 13.848 481.964 13.876 482.02 13.876C482.104 13.876 482.216 13.904 482.356 13.96C482.524 14.016 482.65 14.044 482.734 14.044C483.518 14.044 484.008 14.142 484.204 14.338C484.512 14.786 484.834 15.234 485.17 15.682C485.226 16.102 485.254 16.312 485.254 16.312C485.254 16.368 485.254 16.55 485.254 16.858C485.254 16.886 485.324 17.404 485.464 18.412C485.632 19.42 485.688 20.12 485.632 20.512C485.968 20.876 486.178 21.058 486.262 21.058C486.206 21.058 486.766 20.428 487.942 19.168C489.286 17.74 490.686 16.592 492.142 15.724C494.242 14.492 496.37 13.876 498.526 13.876C499.982 13.876 501.144 14.506 502.012 15.766C502.768 16.83 503.146 18.034 503.146 19.378C503.146 20.918 502.418 22.5 500.962 24.124C500.038 25.16 498.694 26.322 496.93 27.61C495.474 28.674 494.746 29.276 494.746 29.416C494.746 29.78 495.922 31.04 498.274 33.196C500.43 35.156 502.068 36.556 503.188 37.396C503.384 37.536 503.86 37.62 504.616 37.648C505.288 37.648 505.82 37.83 506.212 38.194Z" fill="#DAA520"/>
</svg>
